# File created by Blade
# Date/Time:  Thu Sep 25 15:55:53 2014
# Frame Rate: 120.000 fps
#------------------------------------------------------
:FULLY-SPECIFIED
:DEGREES
880
root -1.686767 32.864009 2.596365 11.580236 -1.152413 -2.564094
Spine -12.881189 6.042670 0.893886
Head -11.296471 -9.599718 13.370547
LeftShoulder -14.567838 22.560002 28.810236
LeftArm 17.576142 -24.616606 -26.265387
LeftForeArm 9.768939 0.000000 11.410664
LeftHand -26.823622 -0.000000 -9.319407
LeftHandThumb1 -26.253704 0.000000 33.147579
RightShoulder -20.167503 10.128113 -41.159616
RightArm -8.516787 10.018114 28.417887
RightForeArm -31.396316 -0.000000 15.795610
RightHand -12.544771 -0.000000 8.701738
RightHandThumb1 -24.326973 -0.000000 -32.862282
LeftUpLeg -5.668696 13.319651 -2.502284
LeftLeg -0.585573 -0.000000 0.000000
LeftFoot -7.756061 -5.502486 -19.777794
LeftToeBase 4.369373 -0.000000 -0.000000
RightUpLeg -6.551380 -3.213987 2.585829
RightLeg 2.049625 -0.000000 -0.000000
RightFoot -8.865737 1.735030 -2.984731
RightToeBase -4.484427 -0.000000 0.000000
881
root -1.687781 32.864108 2.593206 11.562219 -1.115461 -2.557001
Spine -12.864489 6.019234 0.896761
Head -11.323910 -9.637416 13.342856
LeftShoulder -14.567706 22.568634 28.803703
LeftArm 17.586660 -24.602356 -26.275522
LeftForeArm 9.779344 0.000000 11.396642
LeftHand -26.774956 -0.000000 -9.302418
LeftHandThumb1 -26.253704 0.000000 33.147579
RightShoulder -20.163709 10.091690 -41.118196
RightArm -8.550254 10.076217 28.409866
RightForeArm -31.446412 0.000000 15.804904
RightHand -12.488571 -0.000000 8.624010
RightHandThumb1 -24.326973 -0.000000 -32.862282
LeftUpLeg -5.668172 13.334130 -2.503914
LeftLeg -0.570915 -0.000000 0.000000
LeftFoot -7.743145 -5.553523 -19.762607
LeftToeBase 4.659161 -0.000000 -0.000000
RightUpLeg -6.530624 -3.236316 2.589019
RightLeg 2.038475 -0.000000 -0.000000
RightFoot -8.867803 1.702607 -2.982051
RightToeBase -4.449112 -0.000000 0.000000
882
root -1.688499 32.864307 2.589978 11.543566 -1.088718 -2.549005
Spine -12.848411 5.995060 0.900734
Head -11.334094 -9.668566 13.317687
LeftShoulder -14.568346 22.552790 28.798579
LeftArm 17.577152 -24.544117 -26.268519
LeftForeArm 9.743497 -0.000000 11.374692
LeftHand -26.783851 -0.000000 -9.252034
LeftHandThumb1 -26.253704 0.000000 33.147579
RightShoulder -20.168418 10.075098 -41.100557
RightArm -8.563099 10.103392 28.420157
RightForeArm -31.422856 0.000000 15.802323
RightHand -12.476630 -0.000000 8.644318
RightHandThumb1 -24.326973 -0.000000 -32.862282
LeftUpLeg -5.668978 13.354503 -2.510292
LeftLeg -0.552933 -0.000000 0.000000
LeftFoot -7.726882 -5.567305 -19.760244
LeftToeBase 4.385001 -0.000000 -0.000000
RightUpLeg -6.515326 -3.263707 2.589596
RightLeg 2.037694 -0.000000 -0.000000
RightFoot -8.865622 1.691086 -3.005035
RightToeBase -4.481920 -0.000000 0.000000
883
root -1.688766 32.864211 2.585665 11.530988 -1.054360 -2.537568
Spine -12.839093 5.972063 0.903834
Head -11.347141 -9.691164 13.289773
LeftShoulder -14.579743 22.586873 28.781502
LeftArm 17.625229 -24.596372 -26.295452
LeftForeArm 9.889967 -0.000000 11.322495
LeftHand -26.713999 -0.000000 -9.443698
LeftHandThumb1 -26.253704 0.000000 33.147579
RightShoulder -20.176533 10.032814 -41.115016
RightArm -8.559930 10.217073 28.476593
RightForeArm -31.503421 -0.000000 15.760682
RightHand -12.501102 -0.000000 8.644736
RightHandThumb1 -24.326973 -0.000000 -32.862282
LeftUpLeg -5.679344 13.344449 -2.516035
LeftLeg -0.523620 -0.000000 0.000000
LeftFoot -7.725668 -5.606626 -19.799645
LeftToeBase 4.715083 -0.000000 -0.000000
RightUpLeg -6.507238 -3.275845 2.585462
RightLeg 2.036198 -0.000000 -0.000000
RightFoot -8.872769 1.653067 -3.010281
RightToeBase -4.453532 -0.000000 0.000000
